<mxfile host="app.diagrams.net" modified="2023-11-14T11:11:51.650Z" agent="Mozilla/5.0 (Windows NT 10.0; Win64; x64) AppleWebKit/537.36 (KHTML, like Gecko) Chrome/116.0.0.0 Safari/537.36 OPR/102.0.0.0" etag="Rk7INyDZhTDRVWJgGwoh" version="22.1.0" type="device">
  <diagram name="Page-1" id="cl_545oRAYao3lEhDVke">
    <mxGraphModel dx="662" dy="399" grid="1" gridSize="10" guides="1" tooltips="1" connect="1" arrows="1" fold="1" page="1" pageScale="1" pageWidth="850" pageHeight="1100" math="0" shadow="0">
      <root>
        <mxCell id="0" />
        <mxCell id="1" parent="0" />
        <mxCell id="JURFk7EpnRzQr_A5XYo1-1" value="Check End Conditions" style="rounded=1;whiteSpace=wrap;html=1;fillColor=#e1d5e7;strokeColor=#9673a6;" vertex="1" parent="1">
          <mxGeometry x="160" y="120" width="80" height="40" as="geometry" />
        </mxCell>
        <mxCell id="JURFk7EpnRzQr_A5XYo1-2" value="From&lt;br&gt;Action Execution" style="text;html=1;strokeColor=#000000;fillColor=#FFFFFF;align=center;verticalAlign=middle;whiteSpace=wrap;rounded=0;fontColor=#333333;" vertex="1" parent="1">
          <mxGeometry x="20" y="120" width="100" height="40" as="geometry" />
        </mxCell>
        <mxCell id="JURFk7EpnRzQr_A5XYo1-3" value="To&lt;br&gt;New Step" style="text;html=1;strokeColor=#000000;fillColor=#FFFFFF;align=center;verticalAlign=middle;whiteSpace=wrap;rounded=0;fontColor=#333333;" vertex="1" parent="1">
          <mxGeometry x="359" y="80" width="60" height="40" as="geometry" />
        </mxCell>
        <mxCell id="JURFk7EpnRzQr_A5XYo1-4" value="To&lt;br&gt;End Simulation" style="text;html=1;strokeColor=#000000;fillColor=#FFFFFF;align=center;verticalAlign=middle;whiteSpace=wrap;rounded=0;fontColor=#333333;" vertex="1" parent="1">
          <mxGeometry x="330" y="160" width="90" height="40" as="geometry" />
        </mxCell>
        <mxCell id="JURFk7EpnRzQr_A5XYo1-5" value="" style="endArrow=classic;html=1;rounded=0;exitX=0.5;exitY=0;exitDx=0;exitDy=0;entryX=0;entryY=0.5;entryDx=0;entryDy=0;" edge="1" parent="1" source="JURFk7EpnRzQr_A5XYo1-1" target="JURFk7EpnRzQr_A5XYo1-3">
          <mxGeometry width="50" height="50" relative="1" as="geometry">
            <mxPoint x="240" y="240" as="sourcePoint" />
            <mxPoint x="290" y="190" as="targetPoint" />
            <Array as="points">
              <mxPoint x="200" y="100" />
            </Array>
          </mxGeometry>
        </mxCell>
        <mxCell id="JURFk7EpnRzQr_A5XYo1-7" value="&amp;nbsp;Conditions False&amp;nbsp;" style="edgeLabel;html=1;align=center;verticalAlign=middle;resizable=0;points=[];" vertex="1" connectable="0" parent="JURFk7EpnRzQr_A5XYo1-5">
          <mxGeometry x="0.0728" y="1" relative="1" as="geometry">
            <mxPoint x="-14" as="offset" />
          </mxGeometry>
        </mxCell>
        <mxCell id="JURFk7EpnRzQr_A5XYo1-6" value="" style="endArrow=classic;html=1;rounded=0;exitX=0.5;exitY=1;exitDx=0;exitDy=0;entryX=0;entryY=0.5;entryDx=0;entryDy=0;" edge="1" parent="1" source="JURFk7EpnRzQr_A5XYo1-1" target="JURFk7EpnRzQr_A5XYo1-4">
          <mxGeometry width="50" height="50" relative="1" as="geometry">
            <mxPoint x="240" y="240" as="sourcePoint" />
            <mxPoint x="290" y="190" as="targetPoint" />
            <Array as="points">
              <mxPoint x="200" y="180" />
            </Array>
          </mxGeometry>
        </mxCell>
        <mxCell id="JURFk7EpnRzQr_A5XYo1-8" value="&amp;nbsp;Conditions True&amp;nbsp;" style="edgeLabel;html=1;align=center;verticalAlign=middle;resizable=0;points=[];" vertex="1" connectable="0" parent="JURFk7EpnRzQr_A5XYo1-6">
          <mxGeometry x="-0.2808" relative="1" as="geometry">
            <mxPoint x="26" as="offset" />
          </mxGeometry>
        </mxCell>
        <mxCell id="JURFk7EpnRzQr_A5XYo1-9" value="" style="endArrow=classic;html=1;rounded=0;exitX=1;exitY=0.5;exitDx=0;exitDy=0;entryX=0;entryY=0.5;entryDx=0;entryDy=0;" edge="1" parent="1" source="JURFk7EpnRzQr_A5XYo1-2" target="JURFk7EpnRzQr_A5XYo1-1">
          <mxGeometry width="50" height="50" relative="1" as="geometry">
            <mxPoint x="240" y="240" as="sourcePoint" />
            <mxPoint x="290" y="190" as="targetPoint" />
          </mxGeometry>
        </mxCell>
      </root>
    </mxGraphModel>
  </diagram>
</mxfile>
